<svg width="26" height="16" viewBox="0 0 26 16" fill="none" xmlns="http://www.w3.org/2000/svg">
<rect width="26" height="16" rx="5" fill="#D3D3D3"/>
<path fill-rule="evenodd" clip-rule="evenodd" d="M12.8584 2.14192C12.9366 2.06359 13.0634 2.06359 13.1416 2.14192L16.8591 5.86814C16.937 5.94621 16.937 6.07258 16.8591 6.15065L15.9398 7.07207C15.8617 7.15039 15.7348 7.15039 15.6566 7.07207L14.1914 5.60335C14.0654 5.47713 13.8498 5.56631 13.8498 5.7446V12.8C13.8498 12.9105 13.7602 13 13.6498 13H12.3502C12.2398 13 12.1502 12.9105 12.1502 12.8V5.7446C12.1502 5.56631 11.9346 5.47713 11.8086 5.60335L10.3434 7.07207C10.2652 7.15039 10.1383 7.15039 10.0602 7.07207L9.14092 6.15065C9.06304 6.07258 9.06304 5.94621 9.14092 5.86814L12.8584 2.14192Z" fill="black"/>
</svg>
