<svg width="80" height="120" viewBox="0 0 49 68" fill="none" xmlns="http://www.w3.org/2000/svg">
  <path d="M0.936401 17.974C0.936401 16.1189 1.87498 14.3898 3.43065 13.3788L22.5092 0.980488C23.8996 0.23298 25.5128 0.302235 26.8521 1.16693L45.9975 13.5277C47.4189 14.4454 48.2774 16.0215 48.2774 17.7132L48.2774 64.8905C48.2774 67.6018 45.533 67.8681 44.6182 66.1375L38.2686 55.9806L33.1134 55.9419H7.34002C2.42296 55.9419 0.936401 55.2206 0.936401 48.487V17.974Z" fill="#3686DF"/>
  <g transform="translate(12, 16)">
    <path fill-rule="evenodd" clip-rule="evenodd" d="M12.8613 17.3277C17.9493 17.3277 22.074 12.6369 22.074 6.85059H12.8613H3.64868C3.64868 12.6369 7.77333 17.3277 12.8613 17.3277Z" fill="white"/>
    <circle cx="2.3842" cy="1.98704" r="1.98704" fill="white"/>
    <circle cx="22.6159" cy="1.98704" r="1.98704" fill="white"/>
  </g>
</svg>
