<svg width="7rem" height="3rem" viewBox="0 0 410 134" fill="none" xmlns="http://www.w3.org/2000/svg">
<path d="M160 35.1416C160 31.4183 161.883 27.9477 165.005 25.9186L203.29 1.03397C206.081 -0.466353 209.318 -0.327352 212.005 1.40817L250.425 26.2175C253.277 28.0594 255 31.2228 255 34.6182L255 129.308C255 134.75 249.493 135.284 247.657 131.811L234.915 111.425L224.57 111.347H172.85C162.983 111.347 160 109.899 160 96.3843V35.1416Z" fill="#0083CA"/>
<path d="M382.321 72.6789C386.264 72.6789 389.905 72.9527 393.246 73.5003C396.586 74.0479 399.461 74.8967 401.87 76.0466C404.334 77.1965 406.223 78.7024 407.538 80.5642C408.907 82.4259 409.591 84.671 409.591 87.2995C409.591 89.9279 408.907 92.173 407.538 94.0347C406.223 95.8965 404.334 97.4024 401.87 98.5523C399.461 99.7022 396.586 100.551 393.246 101.099C389.905 101.646 386.264 101.92 382.321 101.92C378.379 101.92 374.737 101.646 371.397 101.099C368.057 100.551 365.155 99.7022 362.69 98.5523C360.281 97.4024 358.392 95.8965 357.023 94.0347C355.709 92.173 355.052 89.9279 355.052 87.2995C355.052 84.671 355.709 82.4259 357.023 80.5642C358.392 78.7024 360.281 77.1965 362.69 76.0466C365.155 74.8967 368.057 74.0479 371.397 73.5003C374.737 72.9527 378.379 72.6789 382.321 72.6789ZM382.568 31.1994C382.568 29.4471 383.061 28.1056 384.046 27.1747C385.087 26.189 386.483 25.6962 388.235 25.6962C389.988 25.6962 391.357 26.189 392.342 27.1747C393.383 28.1056 393.903 29.4471 393.903 31.1994V42.3701H398.174V30.4602C398.174 28.7079 398.694 27.3389 399.735 26.3533C400.775 25.3676 402.171 24.8748 403.924 24.8748C405.676 24.8748 407.045 25.3676 408.03 26.3533C409.071 27.3389 409.591 28.7079 409.591 30.4602V66.2722C409.591 68.0245 409.071 69.3934 408.03 70.3791C407.045 71.31 405.676 71.7754 403.924 71.7754C402.171 71.7754 400.775 71.31 399.735 70.3791C398.694 69.3934 398.174 68.0245 398.174 66.2722V52.0624H393.903V63.8081C393.903 65.5603 393.383 66.9293 392.342 67.915C391.357 68.8459 389.988 69.3113 388.235 69.3113C386.483 69.3113 385.087 68.8459 384.046 67.915C383.061 66.9293 382.568 65.5603 382.568 63.8081V31.1994ZM344.045 56.4978C344.045 54.1432 344.511 52.1171 345.442 50.4196C346.372 48.6674 347.605 47.2436 349.138 46.1485C350.726 44.9985 352.505 44.1498 354.477 43.6022C356.503 43.0546 358.611 42.7808 360.801 42.7808C362.992 42.7808 365.072 43.0546 367.044 43.6022C369.07 44.1498 370.849 44.9985 372.383 46.1485C373.971 47.2436 375.23 48.6674 376.161 50.4196C377.092 52.1171 377.557 54.1432 377.557 56.4978C377.557 58.8524 377.092 60.9059 376.161 62.6581C375.23 64.3557 373.971 65.7794 372.383 66.9293C370.849 68.0245 369.07 68.8459 367.044 69.3934C365.072 69.941 362.992 70.2148 360.801 70.2148C358.611 70.2148 356.503 69.941 354.477 69.3934C352.505 68.8459 350.726 68.0245 349.138 66.9293C347.605 65.7794 346.372 64.3557 345.442 62.6581C344.511 60.9059 344.045 58.8524 344.045 56.4978ZM346.427 40.3988C344.565 40.3988 343.087 40.0977 341.992 39.4953C340.951 38.893 340.431 37.6609 340.431 35.7991C340.431 33.9373 340.951 32.7053 341.992 32.1029C343.087 31.5006 344.565 31.1994 346.427 31.1994H354.723V27.6675C354.723 25.8057 355.271 24.4094 356.366 23.4785C357.461 22.4928 358.939 22 360.801 22C362.663 22 364.142 22.4928 365.237 23.4785C366.332 24.4094 366.879 25.8057 366.879 27.6675V31.1994H373.943C375.805 31.1994 377.256 31.5006 378.297 32.1029C379.392 32.7053 379.939 33.9373 379.939 35.7991C379.939 37.6609 379.392 38.893 378.297 39.4953C377.256 40.0977 375.805 40.3988 373.943 40.3988H346.427ZM382.321 91.8992C384.019 91.8992 385.689 91.8444 387.332 91.7349C389.029 91.6254 390.535 91.4063 391.849 91.0778C393.164 90.7492 394.231 90.2838 395.053 89.6814C395.874 89.0791 396.285 88.2851 396.285 87.2995C396.285 86.3138 395.874 85.5198 395.053 84.9175C394.231 84.3151 393.164 83.8497 391.849 83.5211C390.535 83.1926 389.029 82.9735 387.332 82.864C385.689 82.7545 384.019 82.6997 382.321 82.6997C380.624 82.6997 378.926 82.7545 377.229 82.864C375.586 82.9735 374.108 83.1926 372.793 83.5211C371.479 83.8497 370.411 84.3151 369.59 84.9175C368.769 85.5198 368.358 86.3138 368.358 87.2995C368.358 88.2851 368.769 89.0791 369.59 89.6814C370.411 90.2838 371.479 90.7492 372.793 91.0778C374.108 91.4063 375.586 91.6254 377.229 91.7349C378.926 91.8444 380.624 91.8992 382.321 91.8992ZM366.305 56.4978C366.305 54.9098 365.784 53.6778 364.744 52.8016C363.703 51.9255 362.389 51.4874 360.801 51.4874C359.213 51.4874 357.899 51.9255 356.859 52.8016C355.818 53.6778 355.298 54.9098 355.298 56.4978C355.298 58.0858 355.818 59.3179 356.859 60.194C357.899 61.0702 359.213 61.5082 360.801 61.5082C362.389 61.5082 363.703 61.0702 364.744 60.194C365.784 59.3179 366.305 58.0858 366.305 56.4978Z" fill="#0083CA"/>
<path d="M267.914 72.5146C266.162 72.5146 264.738 72.0766 263.643 71.2004C262.548 70.3243 262 69.0101 262 67.2578C262 65.5056 262.548 64.2187 263.643 63.3974C264.738 62.5212 266.162 62.0831 267.914 62.0831H329.599C331.352 62.0831 332.748 62.5212 333.788 63.3974C334.883 64.2187 335.431 65.5056 335.431 67.2578C335.431 69.0101 334.883 70.3243 333.788 71.2004C332.748 72.0766 331.352 72.5146 329.599 72.5146H267.914ZM298.716 46.5591C300.851 46.5591 302.822 46.4496 304.629 46.2306C306.436 46.0115 307.997 45.683 309.311 45.2449C310.625 44.8069 311.639 44.2319 312.35 43.52C313.117 42.7534 313.5 41.8499 313.5 40.8095C313.5 39.7691 313.117 38.8929 312.35 38.1811C311.639 37.4145 310.625 36.8121 309.311 36.3741C307.997 35.936 306.436 35.6074 304.629 35.3884C302.822 35.1694 300.851 35.0599 298.716 35.0599C296.58 35.0599 294.609 35.1694 292.802 35.3884C290.995 35.6074 289.434 35.936 288.12 36.3741C286.806 36.8121 285.765 37.4145 284.999 38.1811C284.287 38.8929 283.931 39.7691 283.931 40.8095C283.931 41.8499 284.287 42.7534 284.999 43.52C285.765 44.2319 286.806 44.8069 288.12 45.2449C289.434 45.683 290.995 46.0115 292.802 46.2306C294.609 46.4496 296.58 46.5591 298.716 46.5591ZM298.716 56.5799C295.211 56.5799 291.816 56.3335 288.53 55.8407C285.245 55.2931 282.315 54.417 279.742 53.2123C277.168 51.9528 275.087 50.3101 273.499 48.284C271.966 46.258 271.199 43.7664 271.199 40.8095C271.199 37.8525 271.966 35.3884 273.499 33.4171C275.087 31.391 277.168 29.7757 279.742 28.571C282.315 27.3115 285.245 26.408 288.53 25.8604C291.816 25.3129 295.211 25.0391 298.716 25.0391C302.22 25.0391 305.615 25.3129 308.901 25.8604C312.186 26.408 315.116 27.3115 317.689 28.571C320.263 29.7757 322.316 31.391 323.85 33.4171C325.438 35.3884 326.232 37.8525 326.232 40.8095C326.232 43.7664 325.438 46.258 323.85 48.284C322.316 50.3101 320.263 51.9528 317.689 53.2123C315.116 54.417 312.186 55.2931 308.901 55.8407C305.615 56.3335 302.22 56.5799 298.716 56.5799ZM271.446 81.4676C271.446 79.6059 272.048 78.2369 273.253 77.3608C274.458 76.4846 275.991 76.0466 277.853 76.0466C279.714 76.0466 281.248 76.4846 282.452 77.3608C283.712 78.2369 284.341 79.6059 284.341 81.4676V88.7779C284.341 89.3802 284.643 89.6814 285.245 89.6814H322.207C324.069 89.6814 325.492 90.0921 326.478 90.9135C327.518 91.7348 328.039 93.0764 328.039 94.9382C328.039 96.8 327.518 98.1416 326.478 98.963C325.492 99.7843 324.069 100.195 322.207 100.195H278.51C276.046 100.195 274.239 99.6201 273.089 98.4701C271.993 97.375 271.446 95.5953 271.446 93.1312V81.4676Z" fill="#0083CA"/>
<path d="M183.913 73.2541C183.913 71.2828 184.516 69.8043 185.72 68.8187C186.98 67.833 188.568 67.3402 190.484 67.3402C192.401 67.3402 193.962 67.8604 195.166 68.9008C196.426 69.8864 197.055 71.3375 197.055 73.2541V75.6361H223.997V73.2541C223.997 71.3375 224.599 69.8864 225.804 68.9008C227.063 67.8604 228.651 67.3402 230.568 67.3402C232.484 67.3402 234.045 67.8604 235.249 68.9008C236.509 69.8864 237.139 71.3375 237.139 73.2541V93.2957C237.139 95.9241 236.564 97.7859 235.414 98.881C234.264 100.031 232.375 100.606 229.746 100.606H191.306C188.623 100.606 186.706 100.031 185.556 98.881C184.461 97.7859 183.913 95.9241 183.913 93.2957V73.2541ZM209.787 26.5999C211.649 26.5999 213.1 27.0106 214.14 27.832C215.235 28.6533 215.783 29.9949 215.783 31.8567C215.783 33.7185 215.235 35.0601 214.14 35.8814C213.1 36.7028 211.649 37.1135 209.787 37.1135H201.244V38.4277C201.244 40.1252 201.628 41.6858 202.394 43.1096C203.161 44.5333 204.147 45.8475 205.351 47.0522C206.611 48.2021 208.007 49.2699 209.54 50.2555C211.128 51.2412 212.716 52.1447 214.304 52.9661C216.057 53.897 217.124 55.0743 217.508 56.498C217.891 57.9217 217.617 59.3728 216.686 60.8513C215.81 62.275 214.551 63.0416 212.908 63.1512C211.32 63.2059 209.705 62.8774 208.062 62.1655C205.543 61.0703 203.134 59.7288 200.834 58.1408C198.534 56.498 196.535 54.691 194.838 52.7197C193.195 54.8005 191.224 56.7444 188.924 58.5514C186.624 60.3585 184.187 61.9465 181.614 63.3154C179.971 64.1916 178.328 64.5475 176.685 64.3832C175.097 64.2189 173.865 63.4249 172.989 62.0012C172.058 60.5228 171.784 59.099 172.168 57.7301C172.551 56.3611 173.619 55.1564 175.371 54.116C177.014 53.1304 178.602 52.0899 180.135 50.9948C181.723 49.8996 183.119 48.6949 184.324 47.3807C185.584 46.0665 186.569 44.6702 187.281 43.1917C188.048 41.7132 188.431 40.1252 188.431 38.4277V37.1135H179.478C177.616 37.1135 176.138 36.7028 175.043 35.8814C174.002 35.0601 173.482 33.7185 173.482 31.8567C173.482 29.9949 174.002 28.6533 175.043 27.832C176.138 27.0106 177.616 26.5999 179.478 26.5999H209.787ZM223.997 30.8711C223.997 28.9545 224.599 27.476 225.804 26.4356C227.063 25.3952 228.651 24.875 230.568 24.875C232.484 24.875 234.045 25.3952 235.249 26.4356C236.509 27.476 237.139 28.9545 237.139 30.8711V57.5658C237.139 59.4823 236.509 60.9608 235.249 62.0012C234.045 63.0416 232.484 63.5618 230.568 63.5618C228.651 63.5618 227.063 63.0416 225.804 62.0012C224.599 60.9608 223.997 59.4823 223.997 57.5658V30.8711ZM197.055 90.4209C197.055 91.0232 197.357 91.3244 197.959 91.3244H223.175C223.723 91.3244 223.997 91.0232 223.997 90.4209V84.8355H197.055V90.4209Z" fill="white"/>
<path d="M134.191 30.8711C134.191 28.9545 134.793 27.476 135.998 26.4356C137.257 25.3952 138.845 24.875 140.762 24.875C142.678 24.875 144.239 25.3952 145.444 26.4356C146.703 27.476 147.333 28.9545 147.333 30.8711V95.1027C147.333 97.0193 146.703 98.4977 145.444 99.5381C144.239 100.579 142.678 101.099 140.762 101.099C138.845 101.099 137.257 100.579 135.998 99.5381C134.793 98.4977 134.191 97.0193 134.191 95.1027V30.8711ZM113.821 28.4891C119.187 28.4891 121.87 31.1448 121.87 36.4564V51.8162C121.87 57.1277 119.187 59.7835 113.821 59.7835H97.4751C96.7085 59.7835 96.3252 60.1668 96.3252 60.9334V71.6113C96.3252 72.378 96.7085 72.7613 97.4751 72.7613H100.021C102.102 72.7613 104.019 72.7339 105.771 72.6791C107.578 72.6244 109.33 72.5422 111.028 72.4327C112.725 72.2684 114.395 72.1042 116.038 71.9399C117.681 71.7756 119.378 71.5566 121.131 71.2828C122.719 71.0638 124.06 71.2554 125.156 71.8577C126.305 72.4053 127.017 73.5279 127.291 75.2254C127.62 76.9229 127.346 78.3192 126.47 79.4144C125.594 80.5096 124.362 81.1941 122.774 81.4679C118.831 82.0702 114.97 82.5083 111.192 82.7821C107.414 83.0559 103.307 83.1927 98.8715 83.1927H91.6433C86.2223 83.1927 83.5117 80.537 83.5117 75.2254V57.4837C83.5117 54.8005 84.251 52.8018 85.7294 51.4876C87.2079 50.1734 89.2887 49.5163 91.9719 49.5163H107.989C108.427 49.5163 108.728 49.4342 108.892 49.2699C109.057 49.1056 109.139 48.7771 109.139 48.2842V40.1526C109.139 39.3312 108.755 38.9205 107.989 38.9205H89.0971C87.5091 38.9205 86.1675 38.4825 85.0723 37.6063C84.0319 36.7302 83.5117 35.4434 83.5117 33.7459C83.5117 31.9936 84.0319 30.6794 85.0723 29.8033C86.1675 28.9271 87.5091 28.4891 89.0971 28.4891H113.821Z" fill="#0083CA"/>
<path d="M36.7155 26.271C40.7129 26.271 44.4365 26.5995 47.8863 27.2567C51.336 27.859 54.293 28.872 56.7571 30.2957C59.276 31.6647 61.2473 33.4717 62.671 35.7168C64.0948 37.9619 64.8066 40.7272 64.8066 44.0127C64.8066 47.2982 64.04 50.0909 62.5068 52.3908C61.0283 54.6359 59.0022 56.4703 56.4286 57.894C53.9097 59.263 50.9527 60.2486 47.5577 60.851C44.1627 61.4533 40.5486 61.7545 36.7155 61.7545C32.8824 61.7545 29.2684 61.4533 25.8734 60.851C22.4783 60.2486 19.494 59.263 16.9204 57.894C14.4015 56.4703 12.3754 54.6359 10.8422 52.3908C9.36369 50.0909 8.62446 47.2982 8.62446 44.0127C8.62446 40.7272 9.33632 37.9619 10.76 35.7168C12.1838 33.4717 14.1277 31.6647 16.5918 30.2957C19.1107 28.872 22.0677 27.859 25.4627 27.2567C28.9125 26.5995 32.6634 26.271 36.7155 26.271ZM5.91391 78.0999C4.05212 78.0999 2.60103 77.6344 1.56062 76.7035C0.520205 75.7726 0 74.3763 0 72.5145C0 70.6527 0.520205 69.2564 1.56062 68.3255C2.60103 67.3946 4.05212 66.9291 5.91391 66.9291H67.5172C69.379 66.9291 70.8301 67.3946 71.8705 68.3255C72.9109 69.2564 73.4311 70.6527 73.4311 72.5145C73.4311 74.3763 72.9109 75.7726 71.8705 76.7035C70.8301 77.6344 69.379 78.0999 67.5172 78.0999H43.2865V95.1024C43.2865 96.8546 42.7116 98.2784 41.5617 99.3735C40.4117 100.523 38.7964 101.098 36.7155 101.098C34.6347 101.098 33.0193 100.523 31.8694 99.3735C30.7195 98.2784 30.1445 96.8546 30.1445 95.1024V78.0999H5.91391ZM36.7155 37.1132C34.7442 37.1132 32.8277 37.2227 30.9659 37.4417C29.1589 37.6608 27.5435 38.0441 26.1198 38.5916C24.6961 39.0845 23.5461 39.769 22.67 40.6451C21.8486 41.5212 21.4379 42.6438 21.4379 44.0127C21.4379 45.3269 21.8486 46.4495 22.67 47.3804C23.5461 48.2565 24.6961 48.9684 26.1198 49.516C27.5435 50.0088 29.1589 50.3647 30.9659 50.5837C32.8277 50.8028 34.7442 50.9123 36.7155 50.9123C38.6868 50.9123 40.576 50.8028 42.383 50.5837C44.2448 50.3647 45.8876 50.0088 47.3113 49.516C48.735 48.9684 49.8576 48.2565 50.6789 47.3804C51.5551 46.4495 51.9931 45.3269 51.9931 44.0127C51.9931 42.6438 51.5551 41.5212 50.6789 40.6451C49.8576 39.769 48.735 39.0845 47.3113 38.5916C45.8876 38.0441 44.2448 37.6608 42.383 37.4417C40.576 37.2227 38.6868 37.1132 36.7155 37.1132Z" fill="#0083CA"/>
</svg>
