
<svg width="926" height="667" viewBox="0 0 926 667" fill="none" xmlns="http://www.w3.org/2000/svg">
<mask id="mask0_295_104" style="mask-type:alpha" maskUnits="userSpaceOnUse" x="0" y="0" width="926" height="667">
<rect width="926" height="667" fill="#C8DFFA"/>
</mask>
<g mask="url(#mask0_295_104)">
<path d="M-350 530.344C-350 489.305 -329.163 451.051 -294.626 428.685L128.929 154.397C159.796 137.86 195.611 139.392 225.344 158.521L650.383 431.979C681.94 452.281 701 487.15 701 524.575L701 1568.28C701 1628.26 640.072 1634.15 619.763 1595.87L478.797 1371.17L364.35 1370.31H-207.836C-316.998 1370.31 -350 1354.35 -350 1205.39V530.344Z" fill="#3686DF"/>
<path d="M-325 542.56C-325 503.299 -305.075 466.702 -272.05 445.306L132.967 182.903C162.484 167.082 196.731 168.548 225.163 186.849L631.599 448.457C661.774 467.88 680 501.238 680 537.041L680 1535.52C680 1592.91 621.739 1598.54 602.319 1561.91L467.522 1346.95L358.084 1346.13H-189.058C-293.442 1346.13 -325 1330.86 -325 1188.35V542.56Z" stroke="white" stroke-opacity="0.24" stroke-width="6" stroke-linecap="round" stroke-dasharray="1 20"/>
<path d="M366 286.479C366 278.588 370.005 271.232 376.643 266.932L458.049 214.191C463.982 211.012 470.865 211.306 476.58 214.984L558.272 267.565C564.337 271.469 568 278.174 568 285.37L568 486.055C568 497.589 556.29 498.721 552.386 491.36L525.293 448.154L503.297 447.989H393.324C372.343 447.989 366 444.921 366 416.277V286.479Z" fill="white"/>
<path d="M428.55 282.5C428.55 281.333 428.917 280.433 429.65 279.8C430.417 279.167 431.383 278.85 432.55 278.85C433.717 278.85 434.667 279.167 435.4 279.8C436.167 280.433 436.55 281.333 436.55 282.5V298.75C436.55 299.917 436.167 300.817 435.4 301.45C434.667 302.083 433.717 302.4 432.55 302.4C431.383 302.4 430.417 302.083 429.65 301.45C428.917 300.817 428.55 299.917 428.55 298.75V282.5ZM397.2 290.5C397.2 288.7 397.517 287.117 398.15 285.75C398.817 284.35 399.717 283.2 400.85 282.3C402.017 281.367 403.383 280.667 404.95 280.2C406.517 279.7 408.2 279.45 410 279.45C411.8 279.45 413.467 279.7 415 280.2C416.567 280.667 417.917 281.367 419.05 282.3C420.217 283.2 421.133 284.35 421.8 285.75C422.467 287.117 422.8 288.7 422.8 290.5C422.8 292.3 422.467 293.9 421.8 295.3C421.133 296.667 420.217 297.817 419.05 298.75C417.917 299.65 416.567 300.35 415 300.85C413.467 301.317 411.8 301.55 410 301.55C408.2 301.55 406.517 301.317 404.95 300.85C403.383 300.35 402.017 299.65 400.85 298.75C399.717 297.817 398.817 296.667 398.15 295.3C397.517 293.9 397.2 292.3 397.2 290.5ZM404.9 290.5C404.9 292.033 405.367 293.267 406.3 294.2C407.233 295.1 408.467 295.55 410 295.55C411.533 295.55 412.767 295.1 413.7 294.2C414.633 293.267 415.1 292.033 415.1 290.5C415.1 288.967 414.633 287.75 413.7 286.85C412.767 285.917 411.533 285.45 410 285.45C408.467 285.45 407.233 285.917 406.3 286.85C405.367 287.75 404.9 288.967 404.9 290.5ZM412.15 318.75C412.15 319.117 412.333 319.3 412.7 319.3H428.05C428.383 319.3 428.55 319.117 428.55 318.75V315.7H412.15V318.75ZM404.15 308.3C404.15 307.1 404.517 306.2 405.25 305.6C406.017 305 406.983 304.7 408.15 304.7C409.317 304.7 410.267 305.017 411 305.65C411.767 306.25 412.15 307.133 412.15 308.3V310.15H428.55V308.3C428.55 307.133 428.917 306.25 429.65 305.65C430.417 305.017 431.383 304.7 432.55 304.7C433.717 304.7 434.667 305.017 435.4 305.65C436.167 306.25 436.55 307.133 436.55 308.3V320.5C436.55 322.1 436.2 323.233 435.5 323.9C434.8 324.6 433.65 324.95 432.05 324.95H408.65C407.017 324.95 405.85 324.6 405.15 323.9C404.483 323.233 404.15 322.1 404.15 320.5V308.3ZM466.748 305.45C469.148 305.45 471.331 305.667 473.298 306.1C475.298 306.5 476.998 307.117 478.398 307.95C479.831 308.783 480.931 309.833 481.698 311.1C482.465 312.367 482.848 313.867 482.848 315.6C482.848 317.333 482.465 318.833 481.698 320.1C480.931 321.367 479.831 322.417 478.398 323.25C476.998 324.083 475.298 324.7 473.298 325.1C471.331 325.533 469.148 325.75 466.748 325.75C464.348 325.75 462.148 325.533 460.148 325.1C458.181 324.7 456.481 324.083 455.048 323.25C453.648 322.417 452.565 321.367 451.798 320.1C451.031 318.833 450.648 317.333 450.648 315.6C450.648 313.867 451.031 312.367 451.798 311.1C452.565 309.833 453.648 308.783 455.048 307.95C456.481 307.117 458.181 306.5 460.148 306.1C462.148 305.667 464.348 305.45 466.748 305.45ZM467.398 279.9C468.531 279.9 469.415 280.15 470.048 280.65C470.715 281.15 471.048 281.967 471.048 283.1C471.048 284.233 470.715 285.05 470.048 285.55C469.415 286.05 468.531 286.3 467.398 286.3H462.198V286.85C462.198 288.017 462.431 289.067 462.898 290C463.365 290.933 463.965 291.783 464.698 292.55C465.465 293.283 466.315 293.95 467.248 294.55C468.215 295.15 469.181 295.7 470.148 296.2C471.215 296.767 471.865 297.483 472.098 298.35C472.331 299.217 472.165 300.1 471.598 301C471.065 301.867 470.298 302.333 469.298 302.4C468.331 302.433 467.348 302.233 466.348 301.8C464.815 301.133 463.348 300.333 461.948 299.4C460.548 298.467 459.331 297.4 458.298 296.2C457.298 297.467 456.098 298.717 454.698 299.95C453.331 301.15 451.848 302.167 450.248 303C449.181 303.567 448.165 303.8 447.198 303.7C446.265 303.567 445.531 303.067 444.998 302.2C443.865 300.333 444.348 298.683 446.448 297.25C447.381 296.617 448.315 295.917 449.248 295.15C450.215 294.383 451.081 293.583 451.848 292.75C452.615 291.883 453.231 290.967 453.698 290C454.165 289 454.398 287.95 454.398 286.85V286.3H448.948C447.815 286.3 446.915 286.05 446.248 285.55C445.615 285.05 445.298 284.233 445.298 283.1C445.298 281.967 445.615 281.15 446.248 280.65C446.915 280.15 447.815 279.9 448.948 279.9H467.398ZM474.998 282.45C474.998 281.283 475.365 280.4 476.098 279.8C476.865 279.167 477.831 278.85 478.998 278.85C480.165 278.85 481.115 279.167 481.848 279.8C482.615 280.4 482.998 281.283 482.998 282.45V288H486.448C487.515 288 488.381 288.267 489.048 288.8C489.715 289.333 490.048 290.167 490.048 291.3C490.048 292.433 489.715 293.267 489.048 293.8C488.381 294.333 487.515 294.6 486.448 294.6H482.998V300.75C482.998 301.917 482.615 302.817 481.848 303.45C481.115 304.083 480.165 304.4 478.998 304.4C477.831 304.4 476.865 304.083 476.098 303.45C475.365 302.817 474.998 301.917 474.998 300.75V282.45ZM466.748 319.6C467.881 319.6 468.931 319.517 469.898 319.35C470.898 319.217 471.765 318.983 472.498 318.65C473.231 318.35 473.798 317.95 474.198 317.45C474.598 316.917 474.798 316.3 474.798 315.6C474.798 314.9 474.598 314.3 474.198 313.8C473.798 313.267 473.231 312.85 472.498 312.55C471.765 312.217 470.898 311.983 469.898 311.85C468.931 311.683 467.881 311.6 466.748 311.6C465.581 311.6 464.515 311.683 463.548 311.85C462.581 311.983 461.731 312.217 460.998 312.55C460.265 312.85 459.698 313.267 459.298 313.8C458.898 314.3 458.698 314.9 458.698 315.6C458.698 316.3 458.898 316.917 459.298 317.45C459.698 317.95 460.265 318.35 460.998 318.65C461.731 318.983 462.581 319.217 463.548 319.35C464.515 319.517 465.581 319.6 466.748 319.6ZM427.7 381.4C427.7 382.533 427.383 383.383 426.75 383.95C426.15 384.517 425.283 384.8 424.15 384.8C423.017 384.8 422.133 384.517 421.5 383.95C420.9 383.383 420.6 382.533 420.6 381.4V343.75C420.6 342.617 420.9 341.767 421.5 341.2C422.133 340.633 423.017 340.35 424.15 340.35C425.283 340.35 426.15 340.633 426.75 341.2C427.383 341.767 427.7 342.617 427.7 343.75V354.05H431.1V343.3C431.1 342.167 431.417 341.317 432.05 340.75C432.683 340.15 433.567 339.85 434.7 339.85C435.833 339.85 436.717 340.15 437.35 340.75C437.983 341.317 438.3 342.167 438.3 343.3V382.8C438.3 383.933 437.983 384.783 437.35 385.35C436.717 385.95 435.833 386.25 434.7 386.25C433.567 386.25 432.683 385.95 432.05 385.35C431.417 384.783 431.1 383.933 431.1 382.8V360.85H427.7V381.4ZM405.1 366.35C405.1 366.717 405.15 366.95 405.25 367.05C405.35 367.15 405.583 367.2 405.95 367.2H407.85C409.217 367.233 410.45 367.2 411.55 367.1C412.683 367 413.733 366.883 414.7 366.75C415.667 366.617 416.5 366.733 417.2 367.1C417.9 367.467 418.35 368.167 418.55 369.2C418.75 370.267 418.567 371.167 418 371.9C417.433 372.6 416.667 373.033 415.7 373.2C414.967 373.333 414.267 373.45 413.6 373.55C412.967 373.617 412.317 373.683 411.65 373.75C410.983 373.783 410.283 373.817 409.55 373.85C408.817 373.85 408.033 373.85 407.2 373.85H402.5C399.133 373.85 397.45 372.2 397.45 368.9V347.15C397.45 343.85 399.133 342.2 402.5 342.2H413.7C414.767 342.2 415.583 342.5 416.15 343.1C416.75 343.667 417.05 344.483 417.05 345.55C417.05 346.617 416.75 347.45 416.15 348.05C415.583 348.617 414.767 348.9 413.7 348.9H405.95C405.583 348.9 405.35 348.95 405.25 349.05C405.15 349.15 405.1 349.383 405.1 349.75V366.35ZM477.586 343.5C477.586 342.333 477.953 341.433 478.686 340.8C479.453 340.167 480.42 339.85 481.586 339.85C482.753 339.85 483.703 340.167 484.436 340.8C485.203 341.433 485.586 342.333 485.586 343.5V382.6C485.586 383.767 485.203 384.667 484.436 385.3C483.703 385.933 482.753 386.25 481.586 386.25C480.42 386.25 479.453 385.933 478.686 385.3C477.953 384.667 477.586 383.767 477.586 382.6V343.5ZM450.486 348.9C449.42 348.9 448.586 348.617 447.986 348.05C447.42 347.45 447.136 346.617 447.136 345.55C447.136 344.483 447.42 343.667 447.986 343.1C448.586 342.5 449.42 342.2 450.486 342.2H465.086C468.42 342.2 470.086 343.817 470.086 347.05V349.8C470.086 352.633 469.62 355.3 468.686 357.8C467.786 360.3 466.503 362.617 464.836 364.75C463.203 366.883 461.236 368.817 458.936 370.55C456.636 372.283 454.12 373.8 451.386 375.1C450.453 375.533 449.486 375.667 448.486 375.5C447.52 375.333 446.753 374.717 446.186 373.65C445.72 372.783 445.603 371.867 445.836 370.9C446.103 369.9 446.77 369.117 447.836 368.55C449.97 367.417 451.903 366.25 453.636 365.05C455.403 363.817 456.903 362.5 458.136 361.1C459.403 359.7 460.37 358.2 461.036 356.6C461.736 355 462.086 353.267 462.086 351.4V350.05C462.086 349.583 462.02 349.283 461.886 349.15C461.753 348.983 461.436 348.9 460.936 348.9H450.486ZM514.734 386.75C512.134 386.75 509.768 386.567 507.634 386.2C505.534 385.867 503.734 385.333 502.234 384.6C500.768 383.867 499.634 382.933 498.834 381.8C498.034 380.667 497.634 379.317 497.634 377.75C497.634 375.017 498.818 372.933 501.184 371.5C503.551 370.067 506.784 369.2 510.884 368.9V365.85H496.034C494.901 365.85 494.001 365.633 493.334 365.2C492.701 364.733 492.384 363.933 492.384 362.8C492.384 361.667 492.701 360.883 493.334 360.45C494.001 359.983 494.901 359.75 496.034 359.75H533.434C534.568 359.75 535.451 359.983 536.084 360.45C536.751 360.883 537.084 361.667 537.084 362.8C537.084 363.933 536.751 364.733 536.084 365.2C535.451 365.633 534.568 365.85 533.434 365.85H518.584V368.9C522.684 369.2 525.918 370.067 528.284 371.5C530.651 372.933 531.834 375.017 531.834 377.75C531.834 379.317 531.434 380.667 530.634 381.8C529.834 382.933 528.684 383.867 527.184 384.6C525.718 385.333 523.918 385.867 521.784 386.2C519.684 386.567 517.334 386.75 514.734 386.75ZM528.284 340.45C529.384 340.45 530.251 340.7 530.884 341.2C531.551 341.667 531.884 342.45 531.884 343.55C531.884 344.65 531.551 345.45 530.884 345.95C530.251 346.417 529.384 346.65 528.284 346.65H519.184C519.584 347.25 520.168 347.8 520.934 348.3C521.701 348.767 522.584 349.217 523.584 349.65C524.584 350.05 525.651 350.433 526.784 350.8C527.951 351.167 529.101 351.517 530.234 351.85C531.234 352.15 531.918 352.667 532.284 353.4C532.684 354.1 532.751 354.833 532.484 355.6C531.918 357.367 530.501 358.033 528.234 357.6C527.001 357.367 525.751 357.05 524.484 356.65C523.218 356.217 521.984 355.75 520.784 355.25C519.618 354.75 518.501 354.217 517.434 353.65C516.401 353.05 515.501 352.433 514.734 351.8C513.968 352.433 513.051 353.05 511.984 353.65C510.951 354.217 509.834 354.75 508.634 355.25C507.468 355.75 506.251 356.217 504.984 356.65C503.718 357.05 502.468 357.367 501.234 357.6C498.968 358.033 497.551 357.367 496.984 355.6C496.718 354.833 496.768 354.1 497.134 353.4C497.534 352.667 498.234 352.15 499.234 351.85C500.368 351.517 501.501 351.167 502.634 350.8C503.768 350.433 504.834 350.05 505.834 349.65C506.834 349.217 507.718 348.767 508.484 348.3C509.284 347.8 509.884 347.25 510.284 346.65H501.184C500.084 346.65 499.201 346.417 498.534 345.95C497.901 345.45 497.584 344.65 497.584 343.55C497.584 342.45 497.901 341.667 498.534 341.2C499.201 340.7 500.084 340.45 501.184 340.45H528.284ZM514.734 374.55C511.701 374.55 509.401 374.833 507.834 375.4C506.301 375.933 505.534 376.717 505.534 377.75C505.534 378.783 506.301 379.55 507.834 380.05C509.401 380.583 511.701 380.85 514.734 380.85C517.768 380.85 520.051 380.583 521.584 380.05C523.151 379.55 523.934 378.783 523.934 377.75C523.934 376.717 523.151 375.933 521.584 375.4C520.051 374.833 517.768 374.55 514.734 374.55Z" fill="#3686DF"/>
<path d="M399.4 417.136C399.4 415.952 399.816 414.944 400.648 414.112C401.48 413.28 402.488 412.864 403.672 412.864C404.856 412.864 405.864 413.28 406.696 414.112C407.528 414.944 407.944 415.952 407.944 417.136C407.944 418.32 407.528 419.328 406.696 420.16C405.864 420.992 404.856 421.408 403.672 421.408C402.488 421.408 401.48 420.992 400.648 420.16C399.816 419.328 399.4 418.32 399.4 417.136ZM416.088 417.136C416.088 415.952 416.504 414.944 417.336 414.112C418.168 413.28 419.176 412.864 420.36 412.864C421.544 412.864 422.552 413.28 423.384 414.112C424.216 414.944 424.632 415.952 424.632 417.136C424.632 418.32 424.216 419.328 423.384 420.16C422.552 420.992 421.544 421.408 420.36 421.408C419.176 421.408 418.168 420.992 417.336 420.16C416.504 419.328 416.088 418.32 416.088 417.136ZM432.775 417.136C432.775 415.952 433.191 414.944 434.023 414.112C434.855 413.28 435.863 412.864 437.047 412.864C438.231 412.864 439.239 413.28 440.071 414.112C440.903 414.944 441.319 415.952 441.319 417.136C441.319 418.32 440.903 419.328 440.071 420.16C439.239 420.992 438.231 421.408 437.047 421.408C435.863 421.408 434.855 420.992 434.023 420.16C433.191 419.328 432.775 418.32 432.775 417.136Z" fill="#3686DF"/>
</g>
</svg>
